<svg width="25" height="25" viewBox="0 0 25 25" fill="none" xmlns="http://www.w3.org/2000/svg">
<path d="M1.44654 24.5391C1.26378 24.5387 1.08309 24.5004 0.91595 24.4265C0.74881 24.3525 0.598884 24.2446 0.475704 24.1096C0.350297 23.9758 0.254602 23.8169 0.194897 23.6434C0.135191 23.47 0.112823 23.2859 0.129258 23.1032L0.451993 19.5544L15.361 4.65069L20.0203 9.3086L5.11518 24.211L1.56642 24.5338C1.52657 24.5375 1.48656 24.5392 1.44654 24.5391ZM20.9503 8.37728L16.2923 3.71937L19.0863 0.925405C19.2086 0.802928 19.3539 0.705767 19.5138 0.639475C19.6738 0.573184 19.8452 0.539062 20.0183 0.539062C20.1914 0.539062 20.3628 0.573184 20.5227 0.639475C20.6826 0.705767 20.8279 0.802928 20.9503 0.925405L23.7442 3.71937C23.8667 3.84171 23.9639 3.98699 24.0302 4.1469C24.0964 4.30682 24.1306 4.47823 24.1306 4.65134C24.1306 4.82446 24.0964 4.99587 24.0302 5.15579C23.9639 5.3157 23.8667 5.46098 23.7442 5.58332L20.9516 8.37597L20.9503 8.37728Z" fill="#2D89FF"/>
</svg>
