<svg width="15" height="28" viewBox="0 0 15 28" fill="none" xmlns="http://www.w3.org/2000/svg">
<path d="M14.0166 1.24483C14.2129 1.44575 14.3228 1.71547 14.3228 1.99633C14.3228 2.27719 14.2129 2.54691 14.0166 2.74783L3.05238 13.9956L14.0166 25.2411C14.2129 25.442 14.3228 25.7117 14.3228 25.9926C14.3228 26.2734 14.2129 26.5432 14.0166 26.7441C13.9212 26.8421 13.8072 26.9199 13.6812 26.9731C13.5552 27.0263 13.4199 27.0537 13.2831 27.0537C13.1464 27.0537 13.011 27.0263 12.8851 26.9731C12.7591 26.9199 12.645 26.8421 12.5496 26.7441L0.890135 14.7808C0.685354 14.5707 0.570745 14.289 0.570745 13.9956C0.570745 13.7022 0.685354 13.4204 0.890135 13.2103L12.5496 1.24708C12.645 1.14911 12.7591 1.07124 12.8851 1.01806C13.011 0.964894 13.1464 0.9375 13.2831 0.9375C13.4199 0.9375 13.5552 0.964894 13.6812 1.01806C13.8072 1.07124 13.9212 1.14911 14.0166 1.24708V1.24483Z" fill="#92AFDC"/>
</svg>
