<svg width="15" height="28" viewBox="0 0 15 28" fill="none" xmlns="http://www.w3.org/2000/svg">
<path d="M0.983366 1.24483C0.787115 1.44575 0.677246 1.71547 0.677246 1.99633C0.677246 2.27719 0.787115 2.54691 0.983366 2.74783L11.9476 13.9956L0.983366 25.2411C0.787115 25.442 0.677246 25.7117 0.677246 25.9926C0.677246 26.2734 0.787115 26.5432 0.983366 26.7441C1.07876 26.8421 1.19281 26.9199 1.31879 26.9731C1.44477 27.0263 1.58012 27.0537 1.71686 27.0537C1.85361 27.0537 1.98896 27.0263 2.11494 26.9731C2.24092 26.9199 2.35497 26.8421 2.45037 26.7441L14.1099 14.7808C14.3146 14.5707 14.4293 14.289 14.4293 13.9956C14.4293 13.7022 14.3146 13.4204 14.1099 13.2103L2.45037 1.24708C2.35497 1.14911 2.24092 1.07124 2.11494 1.01806C1.98896 0.964894 1.85361 0.9375 1.71686 0.9375C1.58012 0.9375 1.44477 0.964894 1.31879 1.01806C1.19281 1.07124 1.07876 1.14911 0.983366 1.24708V1.24483Z" fill="#4A5466"/>
</svg>
